<svg width="256" height="256" viewBox="0 0 256 256" fill="none" xmlns="http://www.w3.org/2000/svg">
  <defs>
    <linearGradient id="bibGlow" x1="0" y1="0" x2="1" y2="1">
      <stop offset="0%" stop-color="#F59E0B"/>
      <stop offset="100%" stop-color="#F97316"/>
    </linearGradient>
    <radialGradient id="bibHalo" cx="0.3" cy="0.2" r="0.9">
      <stop offset="0%" stop-color="#FFD79A" stop-opacity="0.85"/>
      <stop offset="100%" stop-color="#0A0A0C" stop-opacity="0"/>
    </radialGradient>
  </defs>
  <rect width="256" height="256" rx="56" fill="#0A0A0C"/>
  <rect width="256" height="256" rx="56" fill="url(#bibHalo)"/>
  <rect x="24" y="24" width="208" height="208" rx="44" fill="url(#bibGlow)"/>
  <rect x="24" y="24" width="208" height="208" rx="44" fill="url(#bibGlow)" opacity="0.15"/>
  <g fill="#0A0A0C">
    <rect x="38" y="60" width="16" height="16" rx="4"/>
    <rect x="38" y="92" width="16" height="16" rx="4"/>
    <rect x="38" y="124" width="16" height="16" rx="4"/>
    <rect x="38" y="156" width="16" height="16" rx="4"/>
    <rect x="202" y="60" width="16" height="16" rx="4"/>
    <rect x="202" y="92" width="16" height="16" rx="4"/>
    <rect x="202" y="124" width="16" height="16" rx="4"/>
    <rect x="202" y="156" width="16" height="16" rx="4"/>
  </g>
  <text x="128" y="148" text-anchor="middle" font-family="Trebuchet MS, Arial Black, sans-serif" font-size="84" font-weight="800" fill="#0A0A0C" letter-spacing="6">BiB</text>
</svg>
