<svg width="1200" height="630" viewBox="0 0 1200 630" fill="none" xmlns="http://www.w3.org/2000/svg">
  <defs>
    <linearGradient id="bg" x1="0" y1="0" x2="1" y2="1">
      <stop offset="0%" stop-color="#0A0A0C"/>
      <stop offset="100%" stop-color="#141417"/>
    </linearGradient>
    <linearGradient id="bibGlow" x1="0" y1="0" x2="1" y2="1">
      <stop offset="0%" stop-color="#F59E0B"/>
      <stop offset="100%" stop-color="#F97316"/>
    </linearGradient>
    <radialGradient id="halo" cx="0.2" cy="0.15" r="0.9">
      <stop offset="0%" stop-color="#FFD79A" stop-opacity="0.7"/>
      <stop offset="100%" stop-color="#0A0A0C" stop-opacity="0"/>
    </radialGradient>
  </defs>
  <rect width="1200" height="630" fill="url(#bg)"/>
  <rect width="1200" height="630" fill="url(#halo)"/>
  <g transform="translate(140 110)">
    <rect width="420" height="420" rx="80" fill="url(#bibGlow)"/>
    <rect width="420" height="420" rx="80" fill="url(#bibGlow)" opacity="0.15"/>
    <g fill="#0A0A0C">
      <rect x="28" y="70" width="26" height="26" rx="6"/>
      <rect x="28" y="120" width="26" height="26" rx="6"/>
      <rect x="28" y="170" width="26" height="26" rx="6"/>
      <rect x="28" y="220" width="26" height="26" rx="6"/>
      <rect x="28" y="270" width="26" height="26" rx="6"/>
      <rect x="28" y="320" width="26" height="26" rx="6"/>
      <rect x="366" y="70" width="26" height="26" rx="6"/>
      <rect x="366" y="120" width="26" height="26" rx="6"/>
      <rect x="366" y="170" width="26" height="26" rx="6"/>
      <rect x="366" y="220" width="26" height="26" rx="6"/>
      <rect x="366" y="270" width="26" height="26" rx="6"/>
      <rect x="366" y="320" width="26" height="26" rx="6"/>
    </g>
    <text x="210" y="250" text-anchor="middle" font-family="Trebuchet MS, Arial Black, sans-serif" font-size="140" font-weight="800" fill="#0A0A0C" letter-spacing="10">BiB</text>
  </g>
  <text x="640" y="250" font-family="Trebuchet MS, Arial Black, sans-serif" font-size="72" font-weight="700" fill="#F8FAFC">BiB</text>
  <text x="640" y="315" font-family="Trebuchet MS, Arial Black, sans-serif" font-size="36" font-weight="600" fill="#FBBF24">Binge it bro</text>
  <text x="640" y="380" font-family="Trebuchet MS, Arial Black, sans-serif" font-size="28" font-weight="400" fill="#A1A1AA">Movie recommendations from friends.</text>
</svg>
